<svg width="116" height="149" viewBox="0 0 116 149" fill="none" xmlns="http://www.w3.org/2000/svg">
<rect x="0.25" y="0.25" width="115.5" height="9.5" fill="#CCE5FF" stroke="#B8DAFF" stroke-width="0.5"/>
<rect x="0.25" y="14.25" width="115.5" height="29.5" fill="#CCE5FF" stroke="#B8DAFF" stroke-width="0.5"/>
<rect x="0.25" y="49.25" width="115.5" height="9.5" fill="#CCE5FF" stroke="#B8DAFF" stroke-width="0.5"/>
<rect x="14.25" y="64.25" width="101.5" height="9.5" fill="#CCE5FF" stroke="#B8DAFF" stroke-width="0.5"/>
<rect x="14.25" y="79.25" width="101.5" height="9.5" fill="#CCE5FF" stroke="#B8DAFF" stroke-width="0.5"/>
<rect x="14.25" y="94.25" width="101.5" height="9.5" fill="#CCE5FF" stroke="#B8DAFF" stroke-width="0.5"/>
<rect x="14.25" y="125.25" width="101.5" height="9.5" fill="#CCE5FF" stroke="#B8DAFF" stroke-width="0.5"/>
<rect x="14.25" y="139.25" width="101.5" height="9.5" fill="#CCE5FF" stroke="#B8DAFF" stroke-width="0.5"/>
<rect x="0.25" y="110.25" width="115.5" height="9.5" fill="#CCE5FF" stroke="#B8DAFF" stroke-width="0.5"/>
<circle cx="5" cy="69" r="4.75" fill="white" stroke="#B8DAFF" stroke-width="0.5"/>
<circle cx="5" cy="84" r="4.75" fill="#CCE5FF" stroke="#B8DAFF" stroke-width="0.5"/>
<circle cx="5" cy="99" r="4.75" fill="white" stroke="#B8DAFF" stroke-width="0.5"/>
<rect x="0.25" y="125.25" width="9.5" height="9.5" rx="2.75" fill="#CCE5FF" stroke="#B8DAFF" stroke-width="0.5"/>
<rect x="0.25" y="139.25" width="9.5" height="9.5" rx="2.75" fill="white" stroke="#B8DAFF" stroke-width="0.5"/>
<path d="M84.6526 62.1902C84.6526 80.1543 69.488 94.8803 50.5763 94.8803C31.6646 94.8803 16.5 80.1543 16.5 62.1902C16.5 44.226 31.6646 29.5 50.5763 29.5C69.488 29.5 84.6526 44.226 84.6526 62.1902Z" stroke="#80BDFF" stroke-width="5"/>
<path d="M69.4142 91.4853C68.6332 90.7042 68.6332 89.4379 69.4142 88.6569L73.6569 84.4142C74.4379 83.6332 75.7042 83.6332 76.4853 84.4142L109.012 116.941C109.793 117.722 109.793 118.989 109.012 119.77L104.77 124.012C103.989 124.793 102.722 124.793 101.941 124.012L69.4142 91.4853Z" fill="#80BDFF"/>
</svg>
